{
  "accessors": [
    {
      "bufferView": 2,
      "componentType": 5126,
      "count": 1489,
      "max": [
        0.067440152168273926,
        0.067708730697631836,
        0.090270012617111206
      ],
      "min": [
        0.0087221860885620117,
        0.030058622360229492,
        0.084670126438140869
      ],
      "type": "VEC3"
    },
    {
      "bufferView": 2,
      "byteOffset": 17868,
      "componentType": 5126,
      "count": 1489,
      "max": [
        0.99711233377456665,
        0.99999827146530151,
        0.99999922513961792
      ],
      "min": [
        -0.99972701072692871,
        -0.99742573499679565,
        -1
      ],
      "type": "VEC3"
    },
    {
      "bufferView": 3,
      "componentType": 5126,
      "count": 1489,
      "max": [
        0.99038249254226685,
        0.99468320608139038,
        0.99997097253799438,
        1
      ],
      "min": [
        -0.94620662927627563,
        -0.99877315759658813,
        -0.99993026256561279,
        -1
      ],
      "type": "VEC4"
    },
    {
      "bufferView": 3,
      "byteOffset": 23824,
      "componentType": 5126,
      "count": 1489,
      "max": [
        0,
        0,
        0,
        1
      ],
      "min": [
        0,
        0,
        0,
        1
      ],
      "type": "VEC4"
    },
    {
      "bufferView": 1,
      "componentType": 5126,
      "count": 1489,
      "max": [
        0.99609375,
        0.99281692504882812
      ],
      "min": [
        0.0032176971435546875,
        0.0068359375
      ],
      "type": "VEC2"
    },
    {
      "bufferView": 0,
      "componentType": 5125,
      "count": 2967,
      "max": [
        1488
      ],
      "min": [
        0
      ],
      "type": "SCALAR"
    }
  ],
  "asset": {
    "extras": {
      "author": "Ivan008 (https://sketchfab.com/hukan008)",
      "license": "CC-BY-4.0 (http://creativecommons.org/licenses/by/4.0/)",
      "source": "https://sketchfab.com/3d-models/grenade-launcher-4d1c0a6861af4f41a7589e24b8415987",
      "title": "Grenade Launcher"
    },
    "generator": "Sketchfab-7.17.0",
    "version": "2.0"
  },
  "bufferViews": [
    {
      "buffer": 0,
      "byteLength": 11868,
      "byteOffset": 0,
      "name": "floatBufferViews",
      "target": 34963
    },
    {
      "buffer": 0,
      "byteLength": 11912,
      "byteOffset": 11868,
      "byteStride": 8,
      "name": "floatBufferViews",
      "target": 34962
    },
    {
      "buffer": 0,
      "byteLength": 35736,
      "byteOffset": 23780,
      "byteStride": 12,
      "name": "floatBufferViews",
      "target": 34962
    },
    {
      "buffer": 0,
      "byteLength": 47648,
      "byteOffset": 59516,
      "byteStride": 16,
      "name": "floatBufferViews",
      "target": 34962
    }
  ],
  "buffers": [
    {
      "byteLength": 107164,
      "uri": "scene.bin"
    }
  ],
  "images": [
    {
      "uri": "textures/Material_171_baseColor.png"
    }
  ],
  "materials": [
    {
      "doubleSided": true,
      "name": "Material_171",
      "pbrMetallicRoughness": {
        "baseColorFactor": [
          1,
          1,
          1,
          1
        ],
        "baseColorTexture": {
          "index": 0,
          "texCoord": 0
        },
        "metallicFactor": 0,
        "roughnessFactor": 0.59999999999999998
      }
    }
  ],
  "meshes": [
    {
      "name": "4d3215f0.obj_Material #171_0",
      "primitives": [
        {
          "attributes": {
            "COLOR_0": 3,
            "NORMAL": 1,
            "POSITION": 0,
            "TANGENT": 2,
            "TEXCOORD_0": 4
          },
          "indices": 5,
          "material": 0,
          "mode": 4
        }
      ]
    }
  ],
  "nodes": [
    {
      "children": [
        1
      ],
      "name": "RootNode (gltf orientation matrix)",
      "rotation": [
        -0.70710678118654746,
        -0,
        -0,
        0.70710678118654757
      ]
    },
    {
      "children": [
        2
      ],
      "name": "RootNode (model correction matrix)"
    },
    {
      "children": [
        3
      ],
      "matrix": [
        1,
        0,
        0,
        0,
        0,
        0,
        1,
        0,
        0,
        -1,
        0,
        0,
        0,
        0,
        0,
        1
      ],
      "name": "4595217ef8504c1392f28831b8d3815e.fbx"
    },
    {
      "children": [
        4
      ],
      "name": "RootNode"
    },
    {
      "children": [
        5
      ],
      "matrix": [
        83.873607378423984,
        -54.46166078785518,
        -3.3348142403210611e-15,
        0,
        -54.461660787855138,
        -83.873607378423941,
        4.3713255517089446e-06,
        0,
        -2.3805947867192509e-06,
        -3.6662317903357711e-06,
        -100.00427246093743,
        0,
        -1.730257511138916,
        7.7319040298461914,
        47.355197906494141,
        1
      ],
      "name": "4d3215f0.obj"
    },
    {
      "mesh": 0,
      "name": "4d3215f0.obj_Material #171_0"
    }
  ],
  "samplers": [
    {
      "magFilter": 9729,
      "minFilter": 9987,
      "wrapS": 10497,
      "wrapT": 10497
    }
  ],
  "scene": 0,
  "scenes": [
    {
      "name": "OSG_Scene",
      "nodes": [
        0
      ]
    }
  ],
  "textures": [
    {
      "sampler": 0,
      "source": 0
    }
  ]
}

